<svg preserveAspectRatio="none" width="100%" height="100%" overflow="visible" style="display: block;" viewBox="0 0 16 16" fill="none" xmlns="http://www.w3.org/2000/svg">
<g id="Icon">
<path id="Vector" d="M7 14.6667H12C12.3536 14.6667 12.6928 14.5262 12.9428 14.2761C13.1929 14.0261 13.3333 13.687 13.3333 13.3333V4.66667L10 1.33333H4C3.64638 1.33333 3.30724 1.47381 3.05719 1.72386C2.80714 1.97391 2.66667 2.31304 2.66667 2.66667V8.26667" stroke="currentColor" stroke-linecap="round" stroke-linejoin="round"/>
<path id="Vector_2" d="M5.33333 12V6.86667L10.6667 6V10.6667" stroke="currentColor" stroke-linecap="round" stroke-linejoin="round"/>
<path id="Vector_3" d="M9.33333 12C10.0697 12 10.6667 11.403 10.6667 10.6667C10.6667 9.93029 10.0697 9.33333 9.33333 9.33333C8.59695 9.33333 8 9.93029 8 10.6667C8 11.403 8.59695 12 9.33333 12Z" stroke="currentColor" stroke-linecap="round" stroke-linejoin="round"/>
<path id="Vector_4" d="M4 13.3333C4.73638 13.3333 5.33333 12.7364 5.33333 12C5.33333 11.2636 4.73638 10.6667 4 10.6667C3.26362 10.6667 2.66667 11.2636 2.66667 12C2.66667 12.7364 3.26362 13.3333 4 13.3333Z" stroke="currentColor" stroke-linecap="round" stroke-linejoin="round"/>
</g>
</svg>
