<svg width="24" height="24" viewBox="0 0 24 24" fill="none" xmlns="http://www.w3.org/2000/svg">
<path fill-rule="evenodd" clip-rule="evenodd" d="M10.2273 2.68022C11.0178 1.31948 12.9828 1.31948 13.7732 2.68022L16.1914 6.84907C16.4139 7.23317 16.8003 7.49431 17.2394 7.56106L21.2561 8.16765C23.0056 8.4323 23.6192 10.6432 22.2561 11.7721L19.3297 14.1961C19.128 14.3633 18.9749 14.5816 18.8863 14.8281C18.7978 15.0747 18.777 15.3405 18.8262 15.5978L19.6459 19.9025C19.9668 21.5888 18.1962 22.898 16.6773 22.0994L12.6818 19.995C12.4716 19.8845 12.2377 19.8267 12.0003 19.8267C11.7628 19.8267 11.5289 19.8845 11.3187 19.995L7.32319 22.0994C5.80436 22.8992 4.03377 21.5888 4.35463 19.9025L5.17435 15.5978C5.22354 15.3405 5.20276 15.0747 5.11419 14.8281C5.02562 14.5816 4.8725 14.3633 4.67081 14.1961L1.74324 11.7721C0.38134 10.6432 0.993787 8.4323 2.74564 8.16765L6.76226 7.56106C6.97903 7.52818 7.18565 7.44702 7.36685 7.32359C7.54805 7.20015 7.69921 7.03759 7.80916 6.8479L10.2273 2.68022ZM12.2532 3.562C12.2274 3.51777 12.1905 3.48108 12.1461 3.45557C12.1018 3.43007 12.0515 3.41664 12.0003 3.41664C11.9491 3.41664 11.8988 3.43007 11.8544 3.45557C11.81 3.48108 11.7731 3.51777 11.7473 3.562L9.32798 7.73086C9.08583 8.1478 8.75314 8.50505 8.35447 8.77623C7.9558 9.04742 7.50132 9.22562 7.02457 9.29769L3.00795 9.90428C2.95203 9.91269 2.89973 9.93712 2.85739 9.97461C2.81505 10.0121 2.78448 10.0611 2.76937 10.1156C2.75426 10.1701 2.75526 10.2278 2.77224 10.2817C2.78923 10.3357 2.82148 10.3835 2.86509 10.4195L5.79148 12.8436C6.23514 13.2111 6.57205 13.691 6.76711 14.2331C6.96216 14.7752 7.00821 15.3597 6.90045 15.9257L6.08073 20.2304C6.07042 20.2845 6.0756 20.3404 6.09566 20.3917C6.11572 20.4431 6.14985 20.4877 6.19412 20.5204C6.2384 20.5532 6.29103 20.5728 6.34596 20.577C6.40088 20.5813 6.45589 20.5699 6.50464 20.5442L10.5002 18.4411C10.9627 18.1976 11.4776 18.0703 12.0003 18.0703C12.523 18.0703 13.0378 18.1976 13.5004 18.4411L17.4959 20.5442C17.5446 20.5699 17.5996 20.5813 17.6546 20.577C17.7095 20.5728 17.7621 20.5532 17.8064 20.5204C17.8507 20.4877 17.8848 20.4431 17.9049 20.3917C17.9249 20.3404 17.9301 20.2845 17.9198 20.2304L17.1001 15.9257C16.9923 15.3597 17.0384 14.7752 17.2334 14.2331C17.4285 13.691 17.7654 13.2111 18.2091 12.8436L21.1366 10.4195C21.1802 10.3834 21.2125 10.3355 21.2294 10.2815C21.2463 10.2274 21.2472 10.1696 21.232 10.1151C21.2167 10.0606 21.186 10.0116 21.1435 9.97422C21.101 9.9368 21.0486 9.91251 20.9926 9.90428L16.976 9.29769C16.4991 9.22549 16.0446 9.04711 15.6459 8.77572C15.2472 8.50432 14.9146 8.14685 14.6725 7.72968L12.2532 3.562Z" fill="#4EAE29"/>
</svg>
