<svg width="24" height="24" viewBox="0 0 24 24" fill="none" xmlns="http://www.w3.org/2000/svg">
<g clip-path="url(#clip0_4042_13022)">
<path d="M8.65521 5.77104C8.43252 5.70943 8.19861 5.70009 7.97172 5.74376C7.74483 5.78742 7.5311 5.88292 7.34719 6.02278C7.16328 6.16265 7.01416 6.34312 6.91148 6.5501C6.8088 6.75708 6.75531 6.98499 6.75521 7.21604V14.377C6.73821 16.1405 7.38461 17.8459 8.56621 19.155C10.1968 20.9372 12.2261 22.3079 14.4882 23.155C14.8217 23.2773 15.1877 23.2773 15.5212 23.155C17.7836 22.308 19.8134 20.9373 21.4442 19.155C22.6258 17.8459 23.2722 16.1405 23.2552 14.377V7.21604C23.2553 6.98443 23.2018 6.75594 23.0988 6.54848C22.9959 6.34102 22.8462 6.16021 22.6617 6.02024C22.4772 5.88027 22.2628 5.78493 22.0352 5.7417C21.8077 5.69846 21.5732 5.70851 21.3502 5.77104C17.2014 6.95505 12.8041 6.95505 8.65521 5.77104Z" stroke="#4EAE29" stroke-width="1.5" stroke-linecap="round" stroke-linejoin="round"/>
<path d="M17.2503 4.03517V2.25017C17.2502 2.01911 17.1967 1.79121 17.0941 1.58423C16.9914 1.37724 16.8423 1.19678 16.6584 1.05691C16.4744 0.917043 16.2607 0.821551 16.0338 0.777884C15.8069 0.734216 15.573 0.743554 15.3503 0.805168C11.2033 1.98983 6.80738 1.98983 2.66033 0.805168C2.437 0.741709 2.20199 0.730956 1.9738 0.773756C1.74561 0.816556 1.53047 0.91174 1.34532 1.05182C1.16017 1.19189 1.01006 1.37303 0.906815 1.58098C0.803567 1.78893 0.749999 2.018 0.750327 2.25017V9.41217C0.733329 11.1756 1.37973 12.881 2.56133 14.1902C2.73266 14.3768 2.91399 14.5645 3.10533 14.7532M18.0003 15.7502C18.0003 16.5458 17.6843 17.3089 17.1216 17.8715C16.559 18.4341 15.796 18.7502 15.0003 18.7502C14.2047 18.7502 13.4416 18.4341 12.879 17.8715C12.3164 17.3089 12.0003 16.5458 12.0003 15.7502M9.75033 11.2502C9.75033 10.8523 9.90836 10.4708 10.1897 10.1895C10.471 9.9082 10.8525 9.75017 11.2503 9.75017C11.6482 9.75017 12.0297 9.9082 12.311 10.1895C12.5923 10.4708 12.7503 10.8523 12.7503 11.2502M17.2503 11.2502C17.2503 10.8523 17.4084 10.4708 17.6897 10.1895C17.971 9.9082 18.3525 9.75017 18.7503 9.75017C19.1482 9.75017 19.5297 9.9082 19.811 10.1895C20.0923 10.4708 20.2503 10.8523 20.2503 11.2502" stroke="#4EAE29" stroke-width="1.5" stroke-linecap="round" stroke-linejoin="round"/>
</g>
<defs>
<clipPath id="clip0_4042_13022">
<rect width="24" height="24" fill="white"/>
</clipPath>
</defs>
</svg>
